<mxfile host="Electron" modified="2025-01-15T11:35:38.789Z" agent="Mozilla/5.0 (Windows NT 10.0; Win64; x64) AppleWebKit/537.36 (KHTML, like Gecko) draw.io/21.1.2 Chrome/106.0.5249.199 Electron/21.4.3 Safari/537.36" etag="-xaHrb7Z8Lkmt8w7AAa9" version="21.1.2" type="device">
  <diagram name="第 1 页" id="DzVuvTBzcsTgE-moXFRP">
    <mxGraphModel dx="1403" dy="1501" grid="1" gridSize="10" guides="1" tooltips="1" connect="1" arrows="1" fold="1" page="1" pageScale="1" pageWidth="827" pageHeight="1169" math="1" shadow="0">
      <root>
        <mxCell id="0" />
        <mxCell id="1" parent="0" />
        <mxCell id="z9nt96v0YHG31_BLlNtS-1" style="shape=connector;rounded=0;orthogonalLoop=1;jettySize=auto;html=1;labelBackgroundColor=default;strokeColor=default;strokeWidth=1;fontFamily=Helvetica;fontSize=11;fontColor=default;endArrow=blockThin;endFill=1;entryX=0;entryY=0.5;entryDx=0;entryDy=0;endSize=2;" edge="1" parent="1" source="z9nt96v0YHG31_BLlNtS-7" target="z9nt96v0YHG31_BLlNtS-4">
          <mxGeometry relative="1" as="geometry">
            <mxPoint x="-321" y="-535" as="targetPoint" />
          </mxGeometry>
        </mxCell>
        <mxCell id="z9nt96v0YHG31_BLlNtS-2" value="" style="rounded=0;whiteSpace=wrap;html=1;fontFamily=Helvetica;fontSize=11;fontColor=default;" vertex="1" parent="1">
          <mxGeometry x="-389" y="-563.5" width="12" height="57" as="geometry" />
        </mxCell>
        <mxCell id="z9nt96v0YHG31_BLlNtS-3" style="shape=connector;rounded=0;orthogonalLoop=1;jettySize=auto;html=1;entryX=0;entryY=0.5;entryDx=0;entryDy=0;labelBackgroundColor=default;strokeColor=default;strokeWidth=1;fontFamily=Helvetica;fontSize=11;fontColor=default;endArrow=blockThin;endFill=1;endSize=2;exitX=1;exitY=0.5;exitDx=0;exitDy=0;" edge="1" parent="1" source="z9nt96v0YHG31_BLlNtS-4" target="z9nt96v0YHG31_BLlNtS-11">
          <mxGeometry relative="1" as="geometry">
            <mxPoint x="-301" y="-533.75" as="sourcePoint" />
          </mxGeometry>
        </mxCell>
        <mxCell id="z9nt96v0YHG31_BLlNtS-4" value="&lt;font style=&quot;font-size: 16.5px;&quot;&gt;X&lt;/font&gt;" style="ellipse;whiteSpace=wrap;html=1;aspect=fixed;fontFamily=Helvetica;fontSize=16;fontColor=default;strokeWidth=1;verticalAlign=middle;" vertex="1" parent="1">
          <mxGeometry x="-319.5" y="-543.5" width="16.5" height="16.5" as="geometry" />
        </mxCell>
        <mxCell id="z9nt96v0YHG31_BLlNtS-5" value="" style="shape=connector;rounded=0;orthogonalLoop=1;jettySize=auto;html=1;labelBackgroundColor=default;strokeColor=default;strokeWidth=1;fontFamily=Helvetica;fontSize=11;fontColor=default;endArrow=blockThin;endFill=1;entryDx=0;entryDy=0;endSize=2;" edge="1" parent="1" source="z9nt96v0YHG31_BLlNtS-2" target="z9nt96v0YHG31_BLlNtS-7">
          <mxGeometry relative="1" as="geometry">
            <mxPoint x="-316" y="-535" as="targetPoint" />
            <mxPoint x="-391" y="-535" as="sourcePoint" />
          </mxGeometry>
        </mxCell>
        <mxCell id="z9nt96v0YHG31_BLlNtS-6" style="shape=connector;rounded=0;orthogonalLoop=1;jettySize=auto;html=1;labelBackgroundColor=default;strokeColor=default;strokeWidth=1;fontFamily=Helvetica;fontSize=11;fontColor=default;endArrow=blockThin;endFill=1;endSize=2;" edge="1" parent="1" source="z9nt96v0YHG31_BLlNtS-7" target="z9nt96v0YHG31_BLlNtS-9">
          <mxGeometry relative="1" as="geometry">
            <mxPoint x="-321" y="-575" as="targetPoint" />
          </mxGeometry>
        </mxCell>
        <mxCell id="z9nt96v0YHG31_BLlNtS-7" value="" style="shape=waypoint;sketch=0;fillStyle=solid;size=6;pointerEvents=1;points=[];fillColor=none;resizable=0;rotatable=0;perimeter=centerPerimeter;snapToPoint=1;fontFamily=Helvetica;fontSize=11;fontColor=default;" vertex="1" parent="1">
          <mxGeometry x="-371" y="-545" width="20" height="20" as="geometry" />
        </mxCell>
        <mxCell id="z9nt96v0YHG31_BLlNtS-8" style="shape=connector;rounded=0;orthogonalLoop=1;jettySize=auto;html=1;labelBackgroundColor=default;strokeColor=default;strokeWidth=1;fontFamily=Helvetica;fontSize=11;fontColor=default;endArrow=blockThin;endFill=1;endSize=2;exitX=1;exitY=0.75;exitDx=0;exitDy=0;" edge="1" parent="1" source="z9nt96v0YHG31_BLlNtS-9" target="z9nt96v0YHG31_BLlNtS-4">
          <mxGeometry relative="1" as="geometry" />
        </mxCell>
        <mxCell id="z9nt96v0YHG31_BLlNtS-9" value="&lt;font style=&quot;font-size: 6px;&quot;&gt;$$T-Net$$&lt;/font&gt;" style="rounded=1;whiteSpace=wrap;html=1;fontFamily=Helvetica;fontSize=11;fontColor=default;" vertex="1" parent="1">
          <mxGeometry x="-356" y="-563.75" width="30" height="15" as="geometry" />
        </mxCell>
        <mxCell id="z9nt96v0YHG31_BLlNtS-10" value="&lt;font style=&quot;font-size: 5px;&quot; face=&quot;Times New Roman&quot;&gt;$$[B,N,3]$$&lt;/font&gt;" style="text;html=1;strokeColor=none;fillColor=none;align=center;verticalAlign=middle;whiteSpace=wrap;rounded=0;fontSize=11;fontFamily=Helvetica;fontColor=default;direction=west;rotation=-90;" vertex="1" parent="1">
          <mxGeometry x="-411.5" y="-542.5" width="57" height="12" as="geometry" />
        </mxCell>
        <mxCell id="z9nt96v0YHG31_BLlNtS-11" value="" style="rounded=0;whiteSpace=wrap;html=1;fontFamily=Helvetica;fontSize=11;fontColor=default;" vertex="1" parent="1">
          <mxGeometry x="-288" y="-563.75" width="12" height="57" as="geometry" />
        </mxCell>
        <mxCell id="z9nt96v0YHG31_BLlNtS-12" style="shape=connector;rounded=0;orthogonalLoop=1;jettySize=auto;html=1;entryX=0;entryY=0.5;entryDx=0;entryDy=0;labelBackgroundColor=default;strokeColor=default;strokeWidth=1;fontFamily=Helvetica;fontSize=11;fontColor=default;endArrow=blockThin;endFill=1;endSize=2;exitX=0.088;exitY=-0.029;exitDx=0;exitDy=0;exitPerimeter=0;" edge="1" parent="1" source="z9nt96v0YHG31_BLlNtS-22" target="z9nt96v0YHG31_BLlNtS-13">
          <mxGeometry relative="1" as="geometry">
            <mxPoint x="-253.5" y="-564" as="sourcePoint" />
          </mxGeometry>
        </mxCell>
        <mxCell id="z9nt96v0YHG31_BLlNtS-13" value="" style="rounded=0;whiteSpace=wrap;html=1;fontFamily=Helvetica;fontSize=11;fontColor=default;fillColor=#CCCCCC;" vertex="1" parent="1">
          <mxGeometry x="-264.25" y="-563.88" width="40" height="8" as="geometry" />
        </mxCell>
        <mxCell id="z9nt96v0YHG31_BLlNtS-14" value="" style="rounded=0;whiteSpace=wrap;html=1;fontFamily=Helvetica;fontSize=11;fontColor=default;fillColor=#808080;" vertex="1" parent="1">
          <mxGeometry x="-264.25" y="-555.88" width="40" height="8" as="geometry" />
        </mxCell>
        <mxCell id="z9nt96v0YHG31_BLlNtS-15" style="edgeStyle=orthogonalEdgeStyle;shape=connector;rounded=0;orthogonalLoop=1;jettySize=auto;html=1;entryX=0.5;entryY=0;entryDx=0;entryDy=0;labelBackgroundColor=default;strokeColor=default;strokeWidth=1;fontFamily=Helvetica;fontSize=11;fontColor=default;endArrow=none;endFill=0;dashed=1;" edge="1" parent="1" source="z9nt96v0YHG31_BLlNtS-17" target="z9nt96v0YHG31_BLlNtS-18">
          <mxGeometry relative="1" as="geometry" />
        </mxCell>
        <mxCell id="z9nt96v0YHG31_BLlNtS-16" value="&lt;font face=&quot;宋体&quot; style=&quot;font-size: 8px;&quot;&gt;&lt;b style=&quot;&quot;&gt;权值共享&lt;/b&gt;&lt;/font&gt;" style="edgeLabel;html=1;align=center;verticalAlign=middle;resizable=0;points=[];fontSize=11;fontFamily=Helvetica;fontColor=default;" vertex="1" connectable="0" parent="z9nt96v0YHG31_BLlNtS-15">
          <mxGeometry x="-0.032" relative="1" as="geometry">
            <mxPoint y="-3" as="offset" />
          </mxGeometry>
        </mxCell>
        <mxCell id="z9nt96v0YHG31_BLlNtS-17" value="" style="rounded=0;whiteSpace=wrap;html=1;fontFamily=Helvetica;fontSize=11;fontColor=default;fillColor=#4D4D4D;" vertex="1" parent="1">
          <mxGeometry x="-264.25" y="-547.88" width="40" height="8" as="geometry" />
        </mxCell>
        <mxCell id="z9nt96v0YHG31_BLlNtS-18" value="" style="rounded=0;whiteSpace=wrap;html=1;fontFamily=Helvetica;fontSize=11;fontColor=default;" vertex="1" parent="1">
          <mxGeometry x="-264.25" y="-514.88" width="40" height="8" as="geometry" />
        </mxCell>
        <mxCell id="z9nt96v0YHG31_BLlNtS-19" style="shape=connector;rounded=0;orthogonalLoop=1;jettySize=auto;html=1;exitX=0.232;exitY=0.004;exitDx=0;exitDy=0;labelBackgroundColor=default;strokeColor=default;strokeWidth=1;fontFamily=Helvetica;fontSize=11;fontColor=default;endArrow=blockThin;endFill=1;endSize=2;exitPerimeter=0;entryX=0;entryY=0.5;entryDx=0;entryDy=0;" edge="1" parent="1" source="z9nt96v0YHG31_BLlNtS-22" target="z9nt96v0YHG31_BLlNtS-14">
          <mxGeometry relative="1" as="geometry">
            <mxPoint x="-253.5" y="-553.85" as="sourcePoint" />
            <mxPoint x="-238.5" y="-553.85" as="targetPoint" />
          </mxGeometry>
        </mxCell>
        <mxCell id="z9nt96v0YHG31_BLlNtS-20" style="shape=connector;rounded=0;orthogonalLoop=1;jettySize=auto;html=1;exitX=0.984;exitY=0.348;exitDx=0;exitDy=0;labelBackgroundColor=default;strokeColor=default;strokeWidth=1;fontFamily=Helvetica;fontSize=11;fontColor=default;endArrow=blockThin;endFill=1;endSize=2;exitPerimeter=0;entryX=0;entryY=0.5;entryDx=0;entryDy=0;" edge="1" parent="1" source="z9nt96v0YHG31_BLlNtS-11" target="z9nt96v0YHG31_BLlNtS-17">
          <mxGeometry relative="1" as="geometry">
            <mxPoint x="-248.5" y="-544" as="sourcePoint" />
            <mxPoint x="-233.5" y="-544" as="targetPoint" />
          </mxGeometry>
        </mxCell>
        <mxCell id="z9nt96v0YHG31_BLlNtS-21" style="shape=connector;rounded=0;orthogonalLoop=1;jettySize=auto;html=1;labelBackgroundColor=default;strokeColor=default;strokeWidth=1;fontFamily=Helvetica;fontSize=11;fontColor=default;endArrow=blockThin;endFill=1;endSize=2;entryX=0;entryY=0.5;entryDx=0;entryDy=0;exitX=0.984;exitY=0.924;exitDx=0;exitDy=0;exitPerimeter=0;" edge="1" parent="1" source="z9nt96v0YHG31_BLlNtS-11" target="z9nt96v0YHG31_BLlNtS-18">
          <mxGeometry relative="1" as="geometry">
            <mxPoint x="-271" y="-511" as="sourcePoint" />
            <mxPoint x="-233.5" y="-507" as="targetPoint" />
          </mxGeometry>
        </mxCell>
        <mxCell id="z9nt96v0YHG31_BLlNtS-22" value="&lt;font style=&quot;font-size: 5px;&quot;&gt;$$[B,N,3]$$&lt;/font&gt;" style="text;html=1;strokeColor=none;fillColor=none;align=center;verticalAlign=middle;whiteSpace=wrap;rounded=0;fontSize=11;fontFamily=Helvetica;fontColor=default;direction=west;rotation=-90;" vertex="1" parent="1">
          <mxGeometry x="-310.5" y="-542.5" width="57" height="12" as="geometry" />
        </mxCell>
        <mxCell id="z9nt96v0YHG31_BLlNtS-23" style="shape=connector;rounded=0;orthogonalLoop=1;jettySize=auto;html=1;labelBackgroundColor=default;strokeColor=default;strokeWidth=1;fontFamily=Helvetica;fontSize=11;fontColor=default;endArrow=blockThin;endFill=1;entryX=0;entryY=0.5;entryDx=0;entryDy=0;endSize=2;" edge="1" parent="1" source="z9nt96v0YHG31_BLlNtS-29" target="z9nt96v0YHG31_BLlNtS-26">
          <mxGeometry relative="1" as="geometry">
            <mxPoint x="-130.5" y="-535.13" as="targetPoint" />
          </mxGeometry>
        </mxCell>
        <mxCell id="z9nt96v0YHG31_BLlNtS-24" value="" style="rounded=0;whiteSpace=wrap;html=1;fontFamily=Helvetica;fontSize=11;fontColor=default;" vertex="1" parent="1">
          <mxGeometry x="-212.75" y="-563.88" width="18" height="57" as="geometry" />
        </mxCell>
        <mxCell id="z9nt96v0YHG31_BLlNtS-25" style="shape=connector;rounded=0;orthogonalLoop=1;jettySize=auto;html=1;entryX=0;entryY=0.5;entryDx=0;entryDy=0;labelBackgroundColor=default;strokeColor=default;strokeWidth=1;fontFamily=Helvetica;fontSize=11;fontColor=default;endArrow=blockThin;endFill=1;endSize=2;exitX=1;exitY=0.5;exitDx=0;exitDy=0;" edge="1" parent="1" source="z9nt96v0YHG31_BLlNtS-26" target="z9nt96v0YHG31_BLlNtS-33">
          <mxGeometry relative="1" as="geometry">
            <mxPoint x="-116.5" y="-533.5" as="sourcePoint" />
          </mxGeometry>
        </mxCell>
        <mxCell id="z9nt96v0YHG31_BLlNtS-26" value="&lt;font style=&quot;font-size: 16.5px;&quot;&gt;X&lt;/font&gt;" style="ellipse;whiteSpace=wrap;html=1;aspect=fixed;fontFamily=Helvetica;fontSize=16;fontColor=default;strokeWidth=1;verticalAlign=middle;" vertex="1" parent="1">
          <mxGeometry x="-135" y="-543.25" width="16.5" height="16.5" as="geometry" />
        </mxCell>
        <mxCell id="z9nt96v0YHG31_BLlNtS-27" value="" style="shape=connector;rounded=0;orthogonalLoop=1;jettySize=auto;html=1;labelBackgroundColor=default;strokeColor=default;strokeWidth=1;fontFamily=Helvetica;fontSize=11;fontColor=default;endArrow=blockThin;endFill=1;entryDx=0;entryDy=0;endSize=2;" edge="1" parent="1" source="z9nt96v0YHG31_BLlNtS-24" target="z9nt96v0YHG31_BLlNtS-29">
          <mxGeometry relative="1" as="geometry">
            <mxPoint x="-111" y="-534.75" as="targetPoint" />
            <mxPoint x="-186" y="-534.75" as="sourcePoint" />
          </mxGeometry>
        </mxCell>
        <mxCell id="z9nt96v0YHG31_BLlNtS-28" style="shape=connector;rounded=0;orthogonalLoop=1;jettySize=auto;html=1;labelBackgroundColor=default;strokeColor=default;strokeWidth=1;fontFamily=Helvetica;fontSize=11;fontColor=default;endArrow=blockThin;endFill=1;endSize=2;" edge="1" parent="1" source="z9nt96v0YHG31_BLlNtS-29" target="z9nt96v0YHG31_BLlNtS-31">
          <mxGeometry relative="1" as="geometry">
            <mxPoint x="-140.5" y="-575.13" as="targetPoint" />
          </mxGeometry>
        </mxCell>
        <mxCell id="z9nt96v0YHG31_BLlNtS-29" value="" style="shape=waypoint;sketch=0;fillStyle=solid;size=6;pointerEvents=1;points=[];fillColor=none;resizable=0;rotatable=0;perimeter=centerPerimeter;snapToPoint=1;fontFamily=Helvetica;fontSize=11;fontColor=default;" vertex="1" parent="1">
          <mxGeometry x="-190.5" y="-545.13" width="20" height="20" as="geometry" />
        </mxCell>
        <mxCell id="z9nt96v0YHG31_BLlNtS-30" style="shape=connector;rounded=0;orthogonalLoop=1;jettySize=auto;html=1;labelBackgroundColor=default;strokeColor=default;strokeWidth=1;fontFamily=Helvetica;fontSize=11;fontColor=default;endArrow=blockThin;endFill=1;endSize=2;exitX=1;exitY=0.5;exitDx=0;exitDy=0;" edge="1" parent="1" source="z9nt96v0YHG31_BLlNtS-31" target="z9nt96v0YHG31_BLlNtS-26">
          <mxGeometry relative="1" as="geometry" />
        </mxCell>
        <mxCell id="z9nt96v0YHG31_BLlNtS-31" value="&lt;font style=&quot;font-size: 6px;&quot;&gt;$$T-Net$$&lt;/font&gt;" style="rounded=1;whiteSpace=wrap;html=1;fontFamily=Helvetica;fontSize=11;fontColor=default;" vertex="1" parent="1">
          <mxGeometry x="-175.5" y="-563.88" width="30" height="15" as="geometry" />
        </mxCell>
        <mxCell id="z9nt96v0YHG31_BLlNtS-32" value="&lt;font style=&quot;font-size: 5px;&quot;&gt;$$[B,N,64]$$&lt;/font&gt;" style="text;html=1;strokeColor=none;fillColor=none;align=center;verticalAlign=middle;whiteSpace=wrap;rounded=0;fontSize=11;fontFamily=Helvetica;fontColor=default;direction=west;rotation=-90;" vertex="1" parent="1">
          <mxGeometry x="-232.25" y="-541.38" width="57" height="12" as="geometry" />
        </mxCell>
        <mxCell id="z9nt96v0YHG31_BLlNtS-33" value="" style="rounded=0;whiteSpace=wrap;html=1;fontFamily=Helvetica;fontSize=11;fontColor=default;" vertex="1" parent="1">
          <mxGeometry x="-103.5" y="-563.5" width="18" height="57" as="geometry" />
        </mxCell>
        <mxCell id="z9nt96v0YHG31_BLlNtS-34" style="shape=connector;rounded=0;orthogonalLoop=1;jettySize=auto;html=1;entryX=0;entryY=0.5;entryDx=0;entryDy=0;labelBackgroundColor=default;strokeColor=default;strokeWidth=1;fontFamily=Helvetica;fontSize=11;fontColor=default;endArrow=blockThin;endFill=1;endSize=2;exitX=0.985;exitY=0.075;exitDx=0;exitDy=0;exitPerimeter=0;" edge="1" parent="1" source="z9nt96v0YHG31_BLlNtS-33" target="z9nt96v0YHG31_BLlNtS-35">
          <mxGeometry relative="1" as="geometry">
            <mxPoint x="-69" y="-563.75" as="sourcePoint" />
          </mxGeometry>
        </mxCell>
        <mxCell id="z9nt96v0YHG31_BLlNtS-35" value="" style="rounded=0;whiteSpace=wrap;html=1;fontFamily=Helvetica;fontSize=11;fontColor=default;fillColor=#CCCCCC;" vertex="1" parent="1">
          <mxGeometry x="-74" y="-563.5" width="40" height="8" as="geometry" />
        </mxCell>
        <mxCell id="z9nt96v0YHG31_BLlNtS-36" value="" style="rounded=0;whiteSpace=wrap;html=1;fontFamily=Helvetica;fontSize=11;fontColor=default;fillColor=#808080;" vertex="1" parent="1">
          <mxGeometry x="-74" y="-555.5" width="40" height="8" as="geometry" />
        </mxCell>
        <mxCell id="z9nt96v0YHG31_BLlNtS-37" style="edgeStyle=orthogonalEdgeStyle;shape=connector;rounded=0;orthogonalLoop=1;jettySize=auto;html=1;entryX=0.5;entryY=0;entryDx=0;entryDy=0;labelBackgroundColor=default;strokeColor=default;strokeWidth=1;fontFamily=Helvetica;fontSize=11;fontColor=default;endArrow=none;endFill=0;dashed=1;" edge="1" parent="1" source="z9nt96v0YHG31_BLlNtS-39" target="z9nt96v0YHG31_BLlNtS-40">
          <mxGeometry relative="1" as="geometry" />
        </mxCell>
        <mxCell id="z9nt96v0YHG31_BLlNtS-38" value="&lt;span style=&quot;font-size: 8px;&quot;&gt;&lt;b style=&quot;&quot;&gt;&lt;font face=&quot;宋体&quot;&gt;权值共享&lt;/font&gt;&lt;/b&gt;&lt;/span&gt;" style="edgeLabel;html=1;align=center;verticalAlign=middle;resizable=0;points=[];fontSize=11;fontFamily=Helvetica;fontColor=default;" vertex="1" connectable="0" parent="z9nt96v0YHG31_BLlNtS-37">
          <mxGeometry x="-0.032" relative="1" as="geometry">
            <mxPoint y="-3" as="offset" />
          </mxGeometry>
        </mxCell>
        <mxCell id="z9nt96v0YHG31_BLlNtS-39" value="" style="rounded=0;whiteSpace=wrap;html=1;fontFamily=Helvetica;fontSize=11;fontColor=default;fillColor=#4D4D4D;" vertex="1" parent="1">
          <mxGeometry x="-74" y="-547.5" width="40" height="8" as="geometry" />
        </mxCell>
        <mxCell id="z9nt96v0YHG31_BLlNtS-40" value="" style="rounded=0;whiteSpace=wrap;html=1;fontFamily=Helvetica;fontSize=11;fontColor=default;" vertex="1" parent="1">
          <mxGeometry x="-74" y="-514.5" width="40" height="8" as="geometry" />
        </mxCell>
        <mxCell id="z9nt96v0YHG31_BLlNtS-41" style="shape=connector;rounded=0;orthogonalLoop=1;jettySize=auto;html=1;exitX=0.975;exitY=0.214;exitDx=0;exitDy=0;labelBackgroundColor=default;strokeColor=default;strokeWidth=1;fontFamily=Helvetica;fontSize=11;fontColor=default;endArrow=blockThin;endFill=1;endSize=2;exitPerimeter=0;entryX=0;entryY=0.5;entryDx=0;entryDy=0;" edge="1" parent="1" source="z9nt96v0YHG31_BLlNtS-33" target="z9nt96v0YHG31_BLlNtS-36">
          <mxGeometry relative="1" as="geometry">
            <mxPoint x="-69" y="-553.6" as="sourcePoint" />
            <mxPoint x="-54" y="-553.6" as="targetPoint" />
          </mxGeometry>
        </mxCell>
        <mxCell id="z9nt96v0YHG31_BLlNtS-42" style="shape=connector;rounded=0;orthogonalLoop=1;jettySize=auto;html=1;exitX=0.984;exitY=0.348;exitDx=0;exitDy=0;labelBackgroundColor=default;strokeColor=default;strokeWidth=1;fontFamily=Helvetica;fontSize=11;fontColor=default;endArrow=blockThin;endFill=1;endSize=2;exitPerimeter=0;entryX=0;entryY=0.5;entryDx=0;entryDy=0;" edge="1" parent="1" source="z9nt96v0YHG31_BLlNtS-33" target="z9nt96v0YHG31_BLlNtS-39">
          <mxGeometry relative="1" as="geometry">
            <mxPoint x="-64" y="-543.75" as="sourcePoint" />
            <mxPoint x="-49" y="-543.75" as="targetPoint" />
          </mxGeometry>
        </mxCell>
        <mxCell id="z9nt96v0YHG31_BLlNtS-43" style="shape=connector;rounded=0;orthogonalLoop=1;jettySize=auto;html=1;labelBackgroundColor=default;strokeColor=default;strokeWidth=1;fontFamily=Helvetica;fontSize=11;fontColor=default;endArrow=blockThin;endFill=1;endSize=2;entryX=0;entryY=0.5;entryDx=0;entryDy=0;exitX=0.984;exitY=0.924;exitDx=0;exitDy=0;exitPerimeter=0;" edge="1" parent="1" source="z9nt96v0YHG31_BLlNtS-33" target="z9nt96v0YHG31_BLlNtS-40">
          <mxGeometry relative="1" as="geometry">
            <mxPoint x="-86.5" y="-510.75" as="sourcePoint" />
            <mxPoint x="-49" y="-506.75" as="targetPoint" />
          </mxGeometry>
        </mxCell>
        <mxCell id="z9nt96v0YHG31_BLlNtS-44" value="&lt;font style=&quot;font-size: 5px;&quot;&gt;$$[B,N,64]$$&lt;/font&gt;" style="text;html=1;strokeColor=none;fillColor=none;align=center;verticalAlign=middle;whiteSpace=wrap;rounded=0;fontSize=11;fontFamily=Helvetica;fontColor=default;direction=west;rotation=-90;" vertex="1" parent="1">
          <mxGeometry x="-123" y="-542.5" width="57" height="12" as="geometry" />
        </mxCell>
        <mxCell id="z9nt96v0YHG31_BLlNtS-45" style="shape=connector;rounded=0;orthogonalLoop=1;jettySize=auto;html=1;labelBackgroundColor=default;strokeColor=default;strokeWidth=1;fontFamily=Helvetica;fontSize=11;fontColor=default;endArrow=blockThin;endFill=1;endSize=2;exitX=0.984;exitY=0.474;exitDx=0;exitDy=0;exitPerimeter=0;entryX=-0.014;entryY=0.064;entryDx=0;entryDy=0;entryPerimeter=0;" edge="1" parent="1" source="z9nt96v0YHG31_BLlNtS-13" target="z9nt96v0YHG31_BLlNtS-24">
          <mxGeometry relative="1" as="geometry">
            <mxPoint x="-224.25" y="-560.02" as="sourcePoint" />
            <mxPoint x="-199.25" y="-559.88" as="targetPoint" />
          </mxGeometry>
        </mxCell>
        <mxCell id="z9nt96v0YHG31_BLlNtS-46" style="shape=connector;rounded=0;orthogonalLoop=1;jettySize=auto;html=1;exitX=1;exitY=0.5;exitDx=0;exitDy=0;labelBackgroundColor=default;strokeColor=default;strokeWidth=1;fontFamily=Helvetica;fontSize=11;fontColor=default;endArrow=blockThin;endFill=1;endSize=2;entryX=-0.014;entryY=0.208;entryDx=0;entryDy=0;entryPerimeter=0;" edge="1" parent="1" source="z9nt96v0YHG31_BLlNtS-14" target="z9nt96v0YHG31_BLlNtS-24">
          <mxGeometry relative="1" as="geometry">
            <mxPoint x="-224.25" y="-552.02" as="sourcePoint" />
            <mxPoint x="-199.25" y="-552.02" as="targetPoint" />
          </mxGeometry>
        </mxCell>
        <mxCell id="z9nt96v0YHG31_BLlNtS-47" style="shape=connector;rounded=0;orthogonalLoop=1;jettySize=auto;html=1;exitX=1;exitY=0.5;exitDx=0;exitDy=0;labelBackgroundColor=default;strokeColor=default;strokeWidth=1;fontFamily=Helvetica;fontSize=11;fontColor=default;endArrow=blockThin;endFill=1;endSize=2;entryX=-0.005;entryY=0.35;entryDx=0;entryDy=0;entryPerimeter=0;" edge="1" parent="1" source="z9nt96v0YHG31_BLlNtS-17" target="z9nt96v0YHG31_BLlNtS-24">
          <mxGeometry relative="1" as="geometry">
            <mxPoint x="-224.25" y="-543.9499999999999" as="sourcePoint" />
            <mxPoint x="-204.25" y="-543.8100000000001" as="targetPoint" />
          </mxGeometry>
        </mxCell>
        <mxCell id="z9nt96v0YHG31_BLlNtS-48" style="shape=connector;rounded=0;orthogonalLoop=1;jettySize=auto;html=1;labelBackgroundColor=default;strokeColor=default;strokeWidth=1;fontFamily=Helvetica;fontSize=11;fontColor=default;endArrow=blockThin;endFill=1;endSize=2;entryX=-0.004;entryY=0.927;entryDx=0;entryDy=0;entryPerimeter=0;" edge="1" parent="1" target="z9nt96v0YHG31_BLlNtS-24">
          <mxGeometry relative="1" as="geometry">
            <mxPoint x="-224.25" y="-510.88" as="sourcePoint" />
            <mxPoint x="-204.25" y="-510.88" as="targetPoint" />
          </mxGeometry>
        </mxCell>
        <mxCell id="z9nt96v0YHG31_BLlNtS-49" value="" style="rounded=0;whiteSpace=wrap;html=1;fontFamily=Helvetica;fontSize=11;fontColor=default;" vertex="1" parent="1">
          <mxGeometry x="-22" y="-563.88" width="24" height="57" as="geometry" />
        </mxCell>
        <mxCell id="z9nt96v0YHG31_BLlNtS-50" value="&lt;font style=&quot;font-size: 5px;&quot;&gt;$$[B,N,1024]$$&lt;/font&gt;" style="text;html=1;strokeColor=none;fillColor=none;align=center;verticalAlign=middle;whiteSpace=wrap;rounded=0;fontSize=11;fontFamily=Helvetica;fontColor=default;direction=west;rotation=-90;" vertex="1" parent="1">
          <mxGeometry x="-38.5" y="-540.88" width="57" height="12" as="geometry" />
        </mxCell>
        <mxCell id="z9nt96v0YHG31_BLlNtS-51" style="shape=connector;rounded=0;orthogonalLoop=1;jettySize=auto;html=1;labelBackgroundColor=default;strokeColor=default;strokeWidth=1;fontFamily=Helvetica;fontSize=11;fontColor=default;endArrow=blockThin;endFill=1;endSize=2;exitX=0.984;exitY=0.474;exitDx=0;exitDy=0;exitPerimeter=0;entryX=-0.021;entryY=0.069;entryDx=0;entryDy=0;entryPerimeter=0;" edge="1" parent="1" target="z9nt96v0YHG31_BLlNtS-49">
          <mxGeometry relative="1" as="geometry">
            <mxPoint x="-34" y="-560" as="sourcePoint" />
            <mxPoint x="-8" y="-560" as="targetPoint" />
          </mxGeometry>
        </mxCell>
        <mxCell id="z9nt96v0YHG31_BLlNtS-52" style="shape=connector;rounded=0;orthogonalLoop=1;jettySize=auto;html=1;exitX=1;exitY=0.5;exitDx=0;exitDy=0;labelBackgroundColor=default;strokeColor=default;strokeWidth=1;fontFamily=Helvetica;fontSize=11;fontColor=default;endArrow=blockThin;endFill=1;endSize=2;entryX=-0.017;entryY=0.22;entryDx=0;entryDy=0;entryPerimeter=0;" edge="1" parent="1" source="z9nt96v0YHG31_BLlNtS-36" target="z9nt96v0YHG31_BLlNtS-49">
          <mxGeometry relative="1" as="geometry">
            <mxPoint x="-33" y="-552" as="sourcePoint" />
            <mxPoint x="-8" y="-552.14" as="targetPoint" />
          </mxGeometry>
        </mxCell>
        <mxCell id="z9nt96v0YHG31_BLlNtS-53" style="shape=connector;rounded=0;orthogonalLoop=1;jettySize=auto;html=1;exitX=1;exitY=0.5;exitDx=0;exitDy=0;labelBackgroundColor=default;strokeColor=default;strokeWidth=1;fontFamily=Helvetica;fontSize=11;fontColor=default;endArrow=blockThin;endFill=1;endSize=2;entryX=-0.005;entryY=0.356;entryDx=0;entryDy=0;entryPerimeter=0;" edge="1" parent="1" source="z9nt96v0YHG31_BLlNtS-39" target="z9nt96v0YHG31_BLlNtS-49">
          <mxGeometry relative="1" as="geometry">
            <mxPoint x="-33" y="-544" as="sourcePoint" />
            <mxPoint x="-9" y="-543.75" as="targetPoint" />
          </mxGeometry>
        </mxCell>
        <mxCell id="z9nt96v0YHG31_BLlNtS-54" style="shape=connector;rounded=0;orthogonalLoop=1;jettySize=auto;html=1;labelBackgroundColor=default;strokeColor=default;strokeWidth=1;fontFamily=Helvetica;fontSize=11;fontColor=default;endArrow=blockThin;endFill=1;endSize=2;entryX=-0.016;entryY=0.937;entryDx=0;entryDy=0;entryPerimeter=0;exitX=1;exitY=0.5;exitDx=0;exitDy=0;" edge="1" parent="1" source="z9nt96v0YHG31_BLlNtS-40" target="z9nt96v0YHG31_BLlNtS-49">
          <mxGeometry relative="1" as="geometry">
            <mxPoint x="-33" y="-511" as="sourcePoint" />
            <mxPoint x="-13" y="-511" as="targetPoint" />
          </mxGeometry>
        </mxCell>
        <mxCell id="z9nt96v0YHG31_BLlNtS-55" value="" style="triangle;whiteSpace=wrap;html=1;fontFamily=Helvetica;fontSize=11;fontColor=default;" vertex="1" parent="1">
          <mxGeometry x="9" y="-560.13" width="12" height="49.5" as="geometry" />
        </mxCell>
        <mxCell id="z9nt96v0YHG31_BLlNtS-56" value="&lt;font style=&quot;font-size: 8px;&quot; face=&quot;Times New Roman&quot;&gt;mlp(64,64)&lt;/font&gt;" style="text;html=1;strokeColor=none;fillColor=none;align=center;verticalAlign=middle;whiteSpace=wrap;rounded=0;fontSize=11;fontFamily=Helvetica;fontColor=default;" vertex="1" parent="1">
          <mxGeometry x="-262.25" y="-580.13" width="36" height="16.25" as="geometry" />
        </mxCell>
        <mxCell id="z9nt96v0YHG31_BLlNtS-57" value="&lt;font style=&quot;font-size: 8px;&quot; face=&quot;Times New Roman&quot;&gt;mlp(64,128,1024)&lt;/font&gt;" style="text;html=1;strokeColor=none;fillColor=none;align=center;verticalAlign=middle;whiteSpace=wrap;rounded=0;fontSize=11;fontFamily=Helvetica;fontColor=default;" vertex="1" parent="1">
          <mxGeometry x="-85.5" y="-580" width="60" height="16.25" as="geometry" />
        </mxCell>
        <mxCell id="z9nt96v0YHG31_BLlNtS-58" value="&lt;font face=&quot;宋体&quot; style=&quot;font-size: 5px;&quot;&gt;&lt;b&gt;最大池化&lt;/b&gt;&lt;/font&gt;" style="text;html=1;strokeColor=none;fillColor=none;align=center;verticalAlign=middle;whiteSpace=wrap;rounded=0;fontSize=8;fontFamily=Times New Roman;fontColor=default;rotation=90;" vertex="1" parent="1">
          <mxGeometry x="-15" y="-550.38" width="60" height="30" as="geometry" />
        </mxCell>
        <mxCell id="z9nt96v0YHG31_BLlNtS-60" value="&lt;span style=&quot;font-size: 5px;&quot;&gt;&lt;font face=&quot;宋体&quot;&gt;&lt;b&gt;全局特征&lt;/b&gt;&lt;/font&gt;&lt;/span&gt;" style="text;html=1;strokeColor=none;fillColor=none;align=center;verticalAlign=middle;whiteSpace=wrap;rounded=0;fontSize=11;fontFamily=Helvetica;fontColor=default;direction=east;rotation=0;" vertex="1" parent="1">
          <mxGeometry x="31.5" y="-528.88" width="57" height="12" as="geometry" />
        </mxCell>
        <mxCell id="z9nt96v0YHG31_BLlNtS-61" value="" style="shape=table;startSize=0;container=1;collapsible=0;childLayout=tableLayout;gradientColor=#CCCCCC;" vertex="1" parent="1">
          <mxGeometry x="30" y="-542.5" width="60" height="15" as="geometry" />
        </mxCell>
        <mxCell id="z9nt96v0YHG31_BLlNtS-62" value="" style="shape=tableRow;horizontal=0;startSize=0;swimlaneHead=0;swimlaneBody=0;strokeColor=inherit;top=0;left=0;bottom=0;right=0;collapsible=0;dropTarget=0;fillColor=none;points=[[0,0.5],[1,0.5]];portConstraint=eastwest;" vertex="1" parent="z9nt96v0YHG31_BLlNtS-61">
          <mxGeometry width="60" height="15" as="geometry" />
        </mxCell>
        <mxCell id="z9nt96v0YHG31_BLlNtS-63" value="" style="shape=partialRectangle;html=1;whiteSpace=wrap;connectable=0;strokeColor=inherit;overflow=hidden;fillColor=none;top=0;left=0;bottom=0;right=0;pointerEvents=1;" vertex="1" parent="z9nt96v0YHG31_BLlNtS-62">
          <mxGeometry width="15" height="15" as="geometry">
            <mxRectangle width="15" height="15" as="alternateBounds" />
          </mxGeometry>
        </mxCell>
        <mxCell id="z9nt96v0YHG31_BLlNtS-64" value="" style="shape=partialRectangle;html=1;whiteSpace=wrap;connectable=0;strokeColor=inherit;overflow=hidden;fillColor=none;top=0;left=0;bottom=0;right=0;pointerEvents=1;" vertex="1" parent="z9nt96v0YHG31_BLlNtS-62">
          <mxGeometry x="15" width="15" height="15" as="geometry">
            <mxRectangle width="15" height="15" as="alternateBounds" />
          </mxGeometry>
        </mxCell>
        <mxCell id="z9nt96v0YHG31_BLlNtS-65" value="" style="shape=partialRectangle;html=1;whiteSpace=wrap;connectable=0;strokeColor=inherit;overflow=hidden;fillColor=none;top=0;left=0;bottom=0;right=0;pointerEvents=1;" vertex="1" parent="z9nt96v0YHG31_BLlNtS-62">
          <mxGeometry x="30" width="15" height="15" as="geometry">
            <mxRectangle width="15" height="15" as="alternateBounds" />
          </mxGeometry>
        </mxCell>
        <mxCell id="z9nt96v0YHG31_BLlNtS-66" value="" style="shape=partialRectangle;html=1;whiteSpace=wrap;connectable=0;strokeColor=inherit;overflow=hidden;fillColor=none;top=0;left=0;bottom=0;right=0;pointerEvents=1;" vertex="1" parent="z9nt96v0YHG31_BLlNtS-62">
          <mxGeometry x="45" width="15" height="15" as="geometry">
            <mxRectangle width="15" height="15" as="alternateBounds" />
          </mxGeometry>
        </mxCell>
      </root>
    </mxGraphModel>
  </diagram>
</mxfile>
